<svg width="14" height="13" viewBox="0 0 14 13" fill="none" xmlns="http://www.w3.org/2000/svg">
<path d="M0.0292631 6.10076C0.0763147 5.01564 1.06146 4.22976 1.90838 3.97888C2.50535 3.80357 3.07585 4.13606 3.18172 4.7557L3.63459 7.38538C3.66694 7.56976 3.90513 7.90829 4.05805 7.93851C4.21097 7.96874 4.5668 7.82668 4.69913 7.69368L11.5304 0.787C11.9715 0.339653 12.7038 -0.0804911 13.3154 0.0132101C13.8448 0.880701 13.6036 2.1774 12.8979 2.93608L6.13126 10.2357C5.2314 11.206 4.26978 12.2065 3.01115 12.7294C2.16129 13.08 0.720333 12.0553 0.482134 11.1969C0.0204409 9.52539 -0.0530771 7.8962 0.0292631 6.10076Z" fill="#CE5501"/>
</svg>
