<svg width="19" height="19" viewBox="0 0 19 19" fill="none" xmlns="http://www.w3.org/2000/svg">
<path d="M14.8756 7.62238L17.2564 5.38162L17.2791 5.35888C17.8619 4.76655 18.187 3.96793 18.1836 3.137C18.1802 2.30606 17.8486 1.51013 17.261 0.922563C16.6735 0.334998 15.8775 0.00340964 15.0466 2.61484e-05C14.2157 -0.00335734 13.4171 0.321738 12.8247 0.904498C12.8168 0.911498 12.8098 0.919373 12.802 0.927247L10.5612 3.30799L3.50999 0.745257C3.3223 0.677061 3.11906 0.663805 2.9241 0.707042C2.72914 0.75028 2.55056 0.848219 2.4093 0.989369L0.309416 3.08925C0.199053 3.19905 0.114489 3.33202 0.0618469 3.47853C0.00920484 3.62504 -0.0101976 3.78143 0.0050444 3.93636C0.0202864 4.09129 0.0697913 4.24089 0.149975 4.37434C0.230158 4.50778 0.339013 4.62172 0.468657 4.70791L5.70349 8.19722L4.81367 9.08267H3.15126C2.87302 9.08268 2.60616 9.19314 2.4093 9.38978L0.309416 11.4897C0.186632 11.6124 0.0961814 11.7636 0.0461592 11.9298C-0.00386293 12.096 -0.011896 12.272 0.0227786 12.4421C0.0574533 12.6122 0.133754 12.771 0.244852 12.9044C0.355951 13.0377 0.498381 13.1415 0.659397 13.2063L3.74185 14.44L4.97203 17.5146L4.97991 17.5338C5.04675 17.6952 5.15279 17.8373 5.28842 17.9474C5.42406 18.0574 5.585 18.1319 5.75667 18.164C5.92834 18.1961 6.10532 18.185 6.27158 18.1314C6.43783 18.0779 6.58811 17.9838 6.70881 17.8576L8.79207 15.7743C8.88975 15.677 8.96731 15.5613 9.0203 15.434C9.07329 15.3067 9.10069 15.1702 9.10093 15.0323V13.3699L9.98725 12.4836L13.4757 17.7141C13.5618 17.8433 13.6756 17.9519 13.8088 18.0318C13.942 18.1118 14.0912 18.1612 14.2458 18.1766C14.4004 18.1919 14.5565 18.1727 14.7027 18.1204C14.849 18.0681 14.9819 17.984 15.0917 17.8742L17.1916 15.7743C17.3329 15.633 17.431 15.4542 17.4742 15.2591C17.5174 15.064 17.5041 14.8605 17.4357 14.6727L14.8756 7.62238ZM14.516 15.4838L11.0258 10.249C10.9396 10.1198 10.8259 10.0114 10.6927 9.93153C10.5596 9.85165 10.4104 9.80229 10.2559 9.78701C10.221 9.78374 10.1859 9.78228 10.1509 9.78263C10.0129 9.78264 9.87626 9.80984 9.7488 9.86269C9.62134 9.91553 9.50554 9.99298 9.40804 10.0906L7.30815 12.1905C7.11151 12.3874 7.00106 12.6542 7.00104 12.9325V14.5949L6.33433 15.2616L5.52588 13.2404C5.47307 13.1083 5.39395 12.9883 5.29333 12.8876C5.1927 12.787 5.07268 12.7079 4.94053 12.6551L2.9194 11.8466L3.58873 11.1826H5.25114C5.52938 11.1825 5.79624 11.0721 5.9931 10.8754L8.09298 8.77556C8.20319 8.66576 8.28761 8.53285 8.34016 8.38643C8.39271 8.24001 8.41206 8.08374 8.39682 7.92892C8.38158 7.77411 8.33213 7.62461 8.25205 7.49125C8.17196 7.35788 8.06324 7.24398 7.93374 7.15778L2.69978 3.66847L3.42074 2.94664L10.493 5.51812C10.6858 5.5883 10.895 5.60042 11.0947 5.55299C11.2943 5.50557 11.4757 5.40066 11.6164 5.25126L14.3191 2.37967C14.5164 2.18242 14.7839 2.07161 15.0628 2.07161C15.3418 2.07161 15.6093 2.18242 15.8066 2.37967C16.0038 2.57691 16.1146 2.84443 16.1146 3.12338C16.1146 3.40232 16.0038 3.66984 15.8066 3.86708L12.935 6.56981C12.7854 6.7104 12.6803 6.89174 12.6328 7.09141C12.5852 7.29108 12.5972 7.50032 12.6672 7.69325L15.2396 14.7646L14.516 15.4838Z" fill="#CE5501"/>
</svg>
