<svg width="21" height="21" viewBox="0 0 21 21" fill="none" xmlns="http://www.w3.org/2000/svg">
<path d="M10.125 0C8.12247 0 6.1649 0.593821 4.49986 1.70637C2.83481 2.81892 1.53706 4.40023 0.770724 6.25033C0.00438702 8.10043 -0.196122 10.1362 0.194554 12.1003C0.585229 14.0643 1.54954 15.8685 2.96555 17.2845C4.38156 18.7005 6.18566 19.6648 8.14971 20.0555C10.1138 20.4461 12.1496 20.2456 13.9997 19.4793C15.8498 18.7129 17.4311 17.4152 18.5436 15.7501C19.6562 14.0851 20.25 12.1275 20.25 10.125C20.247 7.4406 19.1793 4.86699 17.2812 2.96883C15.383 1.07067 12.8094 0.00297771 10.125 0ZM14.2734 12.6825C14.7484 11.914 15 11.0284 15 10.125C15 9.22158 14.7484 8.336 14.2734 7.5675L16.4297 5.41125C17.449 6.77138 18 8.42529 18 10.125C18 11.8247 17.449 13.4786 16.4297 14.8387L14.2734 12.6825ZM7.5 10.125C7.5 9.60582 7.65396 9.09831 7.9424 8.66663C8.23083 8.23495 8.6408 7.8985 9.12046 7.69982C9.60012 7.50114 10.1279 7.44915 10.6371 7.55044C11.1463 7.65172 11.614 7.90173 11.9812 8.26884C12.3483 8.63596 12.5983 9.10369 12.6996 9.61289C12.8009 10.1221 12.7489 10.6499 12.5502 11.1295C12.3515 11.6092 12.0151 12.0192 11.5834 12.3076C11.1517 12.596 10.6442 12.75 10.125 12.75C9.42881 12.75 8.76113 12.4734 8.26885 11.9812C7.77657 11.4889 7.5 10.8212 7.5 10.125ZM14.8388 3.82031L12.6825 5.97656C11.914 5.50161 11.0284 5.25004 10.125 5.25004C9.22158 5.25004 8.336 5.50161 7.5675 5.97656L5.41125 3.82031C6.77139 2.80097 8.4253 2.25 10.125 2.25C11.8247 2.25 13.4786 2.80097 14.8388 3.82031ZM3.82032 5.41406L5.97657 7.57031C5.50161 8.33881 5.25004 9.22439 5.25004 10.1278C5.25004 11.0312 5.50161 11.9168 5.97657 12.6853L3.82032 14.8416C2.80098 13.4814 2.25 11.8275 2.25 10.1278C2.25 8.4281 2.80098 6.77419 3.82032 5.41406ZM5.41407 16.4325L7.57032 14.2762C8.33882 14.7512 9.22439 15.0028 10.1278 15.0028C11.0312 15.0028 11.9168 14.7512 12.6853 14.2762L14.8416 16.4325C13.4814 17.4518 11.8275 18.0028 10.1278 18.0028C8.42811 18.0028 6.7742 17.4518 5.41407 16.4325Z" fill="#CE5501"/>
</svg>
