<svg width="15" height="16" viewBox="0 0 15 16" fill="none" xmlns="http://www.w3.org/2000/svg">
<path d="M13.1533 0H1.46148C1.07387 0 0.702139 0.153977 0.428058 0.428058C0.153977 0.702139 0 1.07387 0 1.46148V5.55363C0 9.52083 1.92331 11.9272 3.53679 13.2476C5.26938 14.6645 7.00342 15.1475 7.0765 15.1687C7.22772 15.2096 7.3871 15.2096 7.53833 15.1687C7.6114 15.1483 9.34545 14.6645 11.078 13.2476C12.6915 11.9272 14.6148 9.52083 14.6148 5.55363V1.46148C14.6148 1.07387 14.4608 0.702139 14.1868 0.428058C13.9127 0.153977 13.541 0 13.1533 0ZM12.861 5.55363C12.861 8.16311 11.9045 10.2808 10.0177 11.849C9.20899 12.5163 8.29243 13.0409 7.30741 13.4003C6.32231 13.0411 5.40572 12.5165 4.59709 11.849C2.71032 10.2808 1.75378 8.16311 1.75378 5.55363V1.75378H12.861V5.55363ZM3.76405 7.92781C3.68248 7.84624 3.61778 7.74941 3.57363 7.64283C3.52949 7.53626 3.50677 7.42204 3.50677 7.30668C3.50677 7.19133 3.52949 7.0771 3.57363 6.97053C3.61778 6.86395 3.68248 6.76712 3.76405 6.68555C3.84562 6.60398 3.94245 6.53928 4.04903 6.49514C4.1556 6.45099 4.26982 6.42827 4.38518 6.42827C4.50053 6.42827 4.61476 6.45099 4.72133 6.49514C4.82791 6.53928 4.92474 6.60398 5.00631 6.68555L6.13823 7.81893L9.60998 4.34645C9.77471 4.18172 9.99814 4.08917 10.2311 4.08917C10.4641 4.08917 10.6875 4.18172 10.8522 4.34645C11.017 4.51118 11.1095 4.73461 11.1095 4.96758C11.1095 5.20055 11.017 5.42397 10.8522 5.58871L6.76009 9.68086C6.67862 9.76261 6.58182 9.82747 6.47523 9.87173C6.36864 9.91599 6.25437 9.93877 6.13896 9.93877C6.02355 9.93877 5.90927 9.91599 5.80268 9.87173C5.6961 9.82747 5.59929 9.76261 5.51783 9.68086L3.76405 7.92781Z" fill="#CE5501"/>
</svg>
