<svg width="180" height="180" viewBox="0 0 180 180" fill="none" xmlns="http://www.w3.org/2000/svg">
<circle cx="90" cy="90" r="90" fill="#CE5501"/>
<g opacity="0.2" filter="url(#filter0_g_641_691)">
<path d="M90.1763 161.198C74.18 161.198 58.543 156.981 45.2425 149.082C31.9421 141.182 21.5757 129.954 15.4542 116.818C9.33265 103.681 7.73098 89.2259 10.8517 75.2801C13.9724 61.3344 21.6754 48.5245 32.9865 38.4702C44.2975 28.4159 58.7087 21.5688 74.3977 18.7948C90.0866 16.0209 106.349 17.4446 121.127 22.8859C135.906 28.3273 148.537 37.5419 157.424 49.3645C166.312 61.1871 171.055 75.0867 171.055 89.3056C171.03 108.366 162.501 126.639 147.338 140.116C132.176 153.594 111.619 161.175 90.1763 161.198ZM154.855 116.089H122.837C119.02 129.164 112.06 141.349 102.435 151.802C113.756 150.028 124.431 145.856 133.555 139.64C142.679 133.424 149.986 125.346 154.855 116.089ZM161.54 89.3056C161.545 83.0977 160.522 76.923 158.503 70.9802H124.914C127.23 83.1104 127.23 95.5008 124.914 107.631H158.503C160.522 101.688 161.545 95.5135 161.54 89.3056ZM90.1763 27.4008C85.5957 31.5544 81.5554 36.1529 78.1317 41.1097C73.5116 47.7902 69.9219 54.9921 67.4589 62.5223H112.894C110.431 54.9921 106.841 47.7902 102.221 41.1097C98.7972 36.1529 94.757 31.5544 90.1763 27.4008ZM65.1594 70.9802C62.5691 83.0886 62.5691 95.5226 65.1594 107.631H115.193C117.784 95.5226 117.784 83.0886 115.193 70.9802H65.1594ZM18.8128 89.3056C18.8074 95.5135 19.8307 101.688 21.8497 107.631H55.4381C53.1227 95.5008 53.1227 83.1104 55.4381 70.9802H21.8497C19.8307 76.923 18.8074 83.0977 18.8128 89.3056ZM90.1763 151.21C94.757 147.057 98.7972 142.458 102.221 137.502C106.841 130.821 110.431 123.619 112.894 116.089H67.4589C69.9219 123.619 73.5116 130.821 78.1317 137.502C81.5554 142.458 85.5957 147.057 90.1763 151.21ZM77.9176 151.802C68.2929 141.349 61.3323 129.164 57.5156 116.089H25.4972C30.3671 125.346 37.6732 133.424 46.7975 139.64C55.9219 145.856 66.5962 150.028 77.9176 151.802ZM25.4972 62.5223H57.5156C61.3323 49.4469 68.2929 37.2625 77.9176 26.8088C66.5962 28.5832 55.9219 32.755 46.7975 38.9713C37.6732 45.1876 30.3671 53.2657 25.4972 62.5223ZM102.411 26.8088C112.044 37.2606 119.013 49.4451 122.837 62.5223H154.855C149.986 53.2657 142.679 45.1876 133.555 38.9713C124.431 32.755 113.756 28.5832 102.435 26.8088H102.411Z" fill="white"/>
</g>
<path d="M65.2887 73.2683C65.2532 78.7387 65.345 84.6092 65.564 90.8799C65.7829 97.1505 66.1009 103.013 66.5179 108.468L55.1242 108.866L54.6636 95.6779L36.8215 96.301L37.282 109.489L25.8882 109.887C25.9279 103.607 25.8523 97.7358 25.6615 92.2733C25.4708 86.8107 25.1366 80.9487 24.6591 74.6871L36.0528 74.2892L36.5133 87.4769L54.3555 86.8538L53.895 73.6661L65.2887 73.2683ZM83.6926 72.0916C89.7693 71.8794 94.5951 72.4552 98.1702 73.819C101.744 75.1505 104.272 77.1011 105.753 79.6707C107.266 82.2068 108.088 85.3658 108.22 89.1476C108.345 92.7354 107.647 95.8989 106.124 98.6381C104.602 101.377 102.25 103.547 99.0701 105.147C95.8886 106.714 91.9383 107.58 87.2191 107.745C84.3424 107.845 81.4172 107.947 78.4435 108.051C75.4698 108.155 72.4632 108.244 69.4238 108.318C69.46 101.941 69.3822 96.0054 69.1903 90.5105C68.9961 84.951 68.6642 79.1536 68.1946 73.1182C72.0297 72.6607 77.1957 72.3185 83.6926 72.0916ZM88.2398 98.0491C91.2458 97.9441 93.2244 97.1469 94.1756 95.6574C95.1268 94.1678 95.5579 92.1463 95.4687 89.5928C95.3829 87.1363 94.7802 85.1671 93.6605 83.6852C92.5731 82.2021 90.5749 81.5114 87.6658 81.613C84.5305 81.7225 82.1905 81.9013 80.6458 82.1494L81.2096 98.2946L88.2398 98.0491ZM137.04 106.005C135.425 103.311 132.757 99.1967 129.037 93.6633L123.56 99.4855L123.804 106.467L111.732 106.889C111.771 100.609 111.696 94.7381 111.505 89.2756C111.314 83.813 110.98 77.951 110.502 71.6894L122.575 71.2678L123.071 85.4736C128.813 79.3832 132.882 74.5001 135.278 70.8242L150.987 70.2756L136.242 85.936C138.616 89.0246 141.273 92.3784 144.215 95.9973C147.189 99.6151 149.872 102.774 152.264 105.473L137.04 106.005Z" fill="white"/>
<defs>
<filter id="filter0_g_641_691" x="4.66874" y="12.7846" width="171.015" height="153.042" filterUnits="userSpaceOnUse" color-interpolation-filters="sRGB">
<feFlood flood-opacity="0" result="BackgroundImageFix"/>
<feBlend mode="normal" in="SourceGraphic" in2="BackgroundImageFix" result="shape"/>
<feTurbulence type="fractalNoise" baseFrequency="0.052372213453054428 0.052372213453054428" numOctaves="3" seed="3734" />
<feDisplacementMap in="shape" scale="9.2577447891235352" xChannelSelector="R" yChannelSelector="G" result="displacedImage" width="100%" height="100%" />
<feMerge result="effect1_texture_641_691">
<feMergeNode in="displacedImage"/>
</feMerge>
</filter>
</defs>
</svg>
